<svg id="Camada_1" data-name="Camada 1" xmlns="http://www.w3.org/2000/svg" viewBox="0 0 321.43 117.14"><defs><style>.cls-1{fill:#b70000;}.cls-2{font-size:100px;}.cls-2,.cls-8{font-family:KashimaBrushDemo, Kashima Brush Demo;}.cls-3{letter-spacing:-0.02em;}.cls-4{letter-spacing:-0.05em;}.cls-5{letter-spacing:-0.01em;}.cls-6{letter-spacing:-0.03em;}.cls-7{letter-spacing:0em;}.cls-8{font-size:25.51px;}.cls-9{letter-spacing:-0.04em;}.cls-10{letter-spacing:-0.02em;}.cls-11{letter-spacing:-0.05em;}.cls-12{letter-spacing:0em;}.cls-13{stroke:#000;stroke-miterlimit:10;}</style></defs><title>charlie</title><ellipse class="cls-1" cx="246.21" cy="51.03" rx="40.87" ry="42.15"/><text class="cls-2" transform="translate(73.08 85.25)"><tspan class="cls-3">H</tspan><tspan class="cls-4" x="44.29" y="0">A</tspan><tspan class="cls-5" x="76.61" y="0">R</tspan><tspan x="123.93" y="0">L</tspan><tspan class="cls-6" x="171.39" y="0">I</tspan><tspan class="cls-7" x="196.63" y="0">E</tspan></text><text class="cls-8" transform="translate(97.77 110.48)"><tspan xml:space="preserve"> str</tspan><tspan class="cls-9" x="46.31" y="0">e</tspan><tspan x="57.3" y="0">etw</tspan><tspan class="cls-10" x="96.81" y="0">e</tspan><tspan class="cls-11" x="108.3" y="0">a</tspan><tspan class="cls-12" x="116.55" y="0">r</tspan></text><path class="cls-13" d="M17.93,84c.08-.07-.84-1-2-3.12a21.85,21.85,0,0,1-1.53-3.41,18.23,18.23,0,0,1-.85-3.4,14.76,14.76,0,0,1,.11-5.57A14.18,14.18,0,0,1,16.22,63a7.4,7.4,0,0,1,3.24-2.84,6.65,6.65,0,0,1,4.15-.05c2.28.71,3.37,2.43,4.08,2,.29-.18.36-.6.46-1.25A3,3,0,0,0,28,59a3,3,0,0,0-1.36-1.31,6.22,6.22,0,0,0-4.15-.28c-1.62.3-2.1.45-2.1.45-.78.24-1.23.47-1.59.23a1.24,1.24,0,0,1-.4-1,1.25,1.25,0,0,1,.4-1,1.08,1.08,0,0,1,.74-.17c1,.06,1.76-.49,4.37-1.14a21.73,21.73,0,0,1,3.69-.68,15.61,15.61,0,0,1,4.26.23,12.77,12.77,0,0,1,2.67.85,4.65,4.65,0,0,1,1.3.74,4.27,4.27,0,0,1,1,1.14,3.8,3.8,0,0,1,.62,2.27c0,.62-.26.9-.17,1s1.58-.92,2.11-2.5a4.77,4.77,0,0,0-.29-3.57,5,5,0,0,0-1.93-2,11.29,11.29,0,0,0-3.86-1.25,5.52,5.52,0,0,1-1.7-.57c-.46-.24-.83-.43-.86-.74s.63-.94,1.25-1a1.46,1.46,0,0,1,.63.06c2.17.67,4.43,1,6.64,1.53,2.85.68,2.91.3,4.54,1A7.49,7.49,0,0,1,47,53.43a9.52,9.52,0,0,1,1.42,2.67,10.51,10.51,0,0,1,.85,2.84,5.26,5.26,0,0,1,0,2.27,4.77,4.77,0,0,1-1.81,2.56c-1.5,1-3.11.84-3.13,1.19s.88.58,1.71.68a7,7,0,0,0,4.82-1.42,8.56,8.56,0,0,0,3-4.65,10.63,10.63,0,0,0,.28-5.11c-.32-1.55-.72-3.5-2.22-4.55-.47-.33-1.32-.75-1.47-1.59,0-.07-.12-.65.17-.85.57-.4,2.05,1.23,2.38,1s-.31-1.95-1.53-3.35c-2.31-2.65-5.91-3.07-8.06-3.3a26.79,26.79,0,0,0-7.84.57,93,93,0,0,0-9.48,2.1,19.19,19.19,0,0,1-3.86.74c-2,.18-3.56.3-4.83-.68A4.17,4.17,0,0,1,15.83,42c-.35-2.59,2.43-5.26,5.22-6a7.23,7.23,0,0,1,6.36,1.25c1.87,1.62,2.07,4.08,3.41,4.09a1.81,1.81,0,0,0,1.3-.79c1.17-1.46.58-4.29-.85-6a7.35,7.35,0,0,0-5.68-2.45,8.61,8.61,0,0,1-3.52-.39c-.31-.12-.7-.3-.74-.57,0-.48,1-1,1.14-1,2.13-1,3.74,1.1,6.64.85,1.89-.16,1.61-1.07,4.55-1.82a11.67,11.67,0,0,1,5.28-.28c1.36.26,3.46.67,4.54,2.38a6.65,6.65,0,0,1,.85,3c.11,1.53-.29,2.35,0,2.5s1.93-1.16,2.56-3A6.48,6.48,0,0,0,46,27.88c-1-1.25-1.88-1.11-4.66-3.58-1.08-.95-1.43-1.4-1.31-1.7.21-.52,1.82-.68,3.13-.17,2.77,1.09,2.3,4.47,5.11,5.68.56.24.23,0,3.4.45a19.54,19.54,0,0,1,4.38,1,11.16,11.16,0,0,1,3.29,2,8,8,0,0,1,2.38,3.12,6.26,6.26,0,0,1-1,6.81,5.13,5.13,0,0,1-2.27,1.71c-1.44.48-2.61,0-2.67.17s1.23,1.1,2.78,1.13a6.07,6.07,0,0,0,4.15-2,8.52,8.52,0,0,0,2.38-4.08,9.16,9.16,0,0,0-.68-6c-.49-1.12-1.69-3.9-4.26-5a5.85,5.85,0,0,1-2.84-1.82c-.09-.13-.7-1-.45-1.31s1.82.12,2.72.57c1.72.85,2.36,1.9,2.67,1.71s.1-1.54-.68-2.56c-.64-.84-1.28-1-3.24-2s-2.88-1.5-3.12-2.1c-.58-1.45.68-3.77,2.22-4.26a18.13,18.13,0,0,1,2.55,0l2,.06a9.91,9.91,0,0,1,4.37,1.53A9.59,9.59,0,0,1,70,21a11.08,11.08,0,0,1,1,4.66,10.2,10.2,0,0,1-.17,3.58c-.52,2-1.62,3.11-1.25,3.52s1.46-.19,1.53-.23c2-1,2.6-3.45,2.84-4.43a11.59,11.59,0,0,0-.39-6.64,14.27,14.27,0,0,0-4.83-6.13,26.28,26.28,0,0,0-8.35-4.55,43.6,43.6,0,0,0-9.65-2.38,41.4,41.4,0,0,0-12.21,0,42.3,42.3,0,0,0-14.2,5.05,45.44,45.44,0,0,0-11.07,9,38.73,38.73,0,0,0-5.73,8A40,40,0,0,0,3.9,40.2a47,47,0,0,0-1.3,8.63,40.12,40.12,0,0,0,.11,7,41.72,41.72,0,0,0,1.87,8.4A44.77,44.77,0,0,0,9.63,74.73C13.36,80.38,17.76,84.13,17.93,84Z" transform="translate(-2 2.17)"/><path class="cls-13" d="M29.68,62.69c1.15-.3,2.44,2.92,5.11,6.25a31,31,0,0,0,6.14,5.67A37,37,0,0,0,47,78.31a32.88,32.88,0,0,0,17.6,3.12,32.39,32.39,0,0,0,6.42-1c4.11-1.07,6.58-2.66,6.93-2.15S76.66,80.34,76,81a31.28,31.28,0,0,1-9.54,6.42A41.46,41.46,0,0,1,57,90.06a53.78,53.78,0,0,1-8.52.91,36.26,36.26,0,0,1-8.5-.53,35.76,35.76,0,0,1-8.54-3,68.13,68.13,0,0,1-9.82-5.79,15.46,15.46,0,0,1-5.23-5.11c-.41-.7-1.15-2.09-.9-2.27.43-.33,3.17,4,8.23,7.78a38.8,38.8,0,0,0,10.39,5.39,40.89,40.89,0,0,0,7.5,2,39.86,39.86,0,0,0,6.4.44,49.26,49.26,0,0,0,7.22-.55,42.49,42.49,0,0,0,6.53-1.42c4.6-1.44,8.24-3.6,8.13-3.87s-3.14,1.38-8.24,2.28a41.85,41.85,0,0,1-8.23.56A43.65,43.65,0,0,1,43.2,85.69a40.36,40.36,0,0,1-7.1-2.39,41.85,41.85,0,0,1-5.23-2.84,48.7,48.7,0,0,1-7.09-5.56c-3.21-3-1.88-2.55-5.11-5.68-1-1-2.48-2.32-2.16-3.52.07-.29.3-.73.57-.74.43,0,.77,1.16.85,1.42.56,1.79,2.41,3.56,5.51,6.53A45.74,45.74,0,0,0,33,80.29a42.66,42.66,0,0,0,9.82,4.09,44.3,44.3,0,0,0,12.61,1.48,37.81,37.81,0,0,0,9.08-1.31c1.67-.46,3.86-1.19,3.81-1.42s-3.48.61-8.07.85a38,38,0,0,1-11.18-.85,38.69,38.69,0,0,1-9.94-4,38.27,38.27,0,0,1-9-6.08,47.53,47.53,0,0,1-6.93-8.52,17.92,17.92,0,0,1-1.7-2.72c.1-.08,1.86,2.4,4.37,5.22a52.75,52.75,0,0,0,7.78,7.38,39.87,39.87,0,0,0,7.55,4.72,40.37,40.37,0,0,0,8.8,3,43.2,43.2,0,0,0,8.52.91,13.59,13.59,0,0,0,3.12-.17c0-.19-3-.27-6.24-.85a37.46,37.46,0,0,1-20-10.62C32.55,68.46,33.55,68.49,31,66c-.76-.74-2.16-2-1.82-2.84A.84.84,0,0,1,29.68,62.69Z" transform="translate(-2 2.17)"/></svg>